#!OML:ASF F:\VICON\USERDATA\INSTALL\rory3\rory3.ASF
:FULLY-SPECIFIED
:DEGREES
213
root 0.645514 26.7194 -17.3463 5.56115 -8.15291 1.52395
lowerback 16.7002 1.40071 -1.29938
upperback 2.04793 1.64006 0.515733
thorax -7.22094 0.833489 0.918316
lowerneck -12.6733 -3.79705 -11.8081
upperneck 11.3525 -4.25511 9.33943
head 5.96841 -1.90152 4.53382
rclavicle 7.45443e-015 1.63003e-014
rhumerus -42.4939 -29.7492 -67.8988
rradius 25.0083
rwrist 3.2429
rhand -16.0076 9.7038
rfingers 7.12502
rthumb 10.1928 -20.0293
lclavicle 7.45443e-015 1.63003e-014
lhumerus -35.3737 24.8912 80.114
lradius 26.9938
lwrist 2.02885
lhand -23.7745 13.8772
lfingers 7.12502
lthumb 2.69517 43.84
rfemur -26.5342 -12.0321 24.4051
rtibia 39.4905
rfoot 24.5257 -10.9017
rtoes 20.9946
lfemur -28.0031 3.94838 -18.692
ltibia 42.8502
lfoot 23.8098 -8.18327
ltoes 8.46932
214
root 0.638984 26.7577 -17.3396 6.00699 -8.43596 1.54323
lowerback 16.2496 1.30889 -1.40694
upperback 2.00767 1.51081 0.572835
thorax -7.01724 0.774546 1.07707
lowerneck -14.0436 -3.80607 -11.8961
upperneck 12.2872 -4.13624 9.29453
head 6.48512 -1.82492 4.54739
rclavicle 2.62396e-014 -1.35174e-014
rhumerus -42.2055 -27.0826 -69.8927
rradius 26.3629
rwrist 2.58014
rhand -15.8042 8.60314
rfingers 7.12502
rthumb 10.3891 -21.1202
lclavicle 2.62396e-014 -1.35174e-014
lhumerus -36.1805 25.1473 80.3298
lradius 27.6047
lwrist 3.87964
lhand -24.0543 13.4169
lfingers 7.12502
lthumb 2.42496 43.3828
rfemur -27.0842 -12.0925 24.5664
rtibia 39.0955
rfoot 24.1226 -10.0251
rtoes 19.5449
lfemur -28.5025 4.14462 -18.6089
ltibia 42.4386
lfoot 22.9347 -7.68081
ltoes 7.91049
215
root 0.631425 26.7857 -17.3454 6.06724 -8.25345 1.39544
lowerback 16.0012 1.17017 -1.14525
upperback 2.25026 1.37725 0.587396
thorax -6.61073 0.699884 0.979849
lowerneck -14.3469 -3.86411 -11.9065
upperneck 12.4434 -4.21042 9.4435
head 6.59861 -1.84316 4.59123
rclavicle -7.15625e-015 -5.96354e-015
rhumerus -42.0609 -24.7353 -71.9421
rradius 28.008
rwrist 1.85659
rhand -16.1418 7.63105
rfingers 7.12502
rthumb 10.0634 -22.1083
lclavicle -7.15625e-015 -5.96354e-015
lhumerus -36.4327 24.9648 80.7207
lradius 28.2137
lwrist 5.39203
lhand -24.3479 13.7917
lfingers 7.12502
lthumb 2.14134 43.7607
rfemur -27.066 -12.2664 24.8042
rtibia 38.6067
rfoot 23.8455 -9.6242
rtoes 18.8956
lfemur -28.6544 3.94283 -18.2619
ltibia 41.9845
lfoot 22.2085 -7.2968
ltoes 7.75216
216
root 0.621842 26.792 -17.3525 6.01722 -8.30671 1.35722
lowerback 16.3827 1.13703 -1.23508
upperback 2.03796 1.32164 0.687262
thorax -7.05088 0.679526 1.14178
lowerneck -13.749 -3.72656 -11.7958
upperneck 12.4816 -4.07916 9.2089
head 6.48602 -1.80768 4.51246
rclavicle 6.85807e-015 1.59028e-015
rhumerus -42.8116 -22.2121 -73.3588
rradius 29.6123
rwrist 1.36295
rhand -16.8937 7.43336
rfingers 7.12502
rthumb 9.33787 -22.3398
lclavicle 6.85807e-015 1.59028e-015
lhumerus -37.5877 24.6878 80.9065
lradius 28.9768
lwrist 6.69277
lhand -24.6184 14.6594
lfingers 7.12502
lthumb 1.88007 44.6309
rfemur -27.0282 -12.2631 24.9061
rtibia 38.1171
rfoot 23.9561 -9.27289
rtoes 18.4849
lfemur -28.6088 3.88692 -18.0358
ltibia 41.4985
lfoot 21.2226 -7.02632
ltoes 6.59063
217
root 0.611387 26.7795 -17.361 6.05068 -8.74827 1.20118
lowerback 16.2128 1.11756 -1.29146
upperback 2.12279 1.29598 0.803938
thorax -6.86968 0.668485 1.30686
lowerneck -13.3127 -3.51067 -11.8654
upperneck 12.0982 -3.7776 9.05798
head 6.25469 -1.68425 4.5023
rclavicle 1.26228e-014 1.23246e-014
rhumerus -42.9615 -19.8295 -74.8786
rradius 30.8532
rwrist 1.28649
rhand -17.986 7.52607
rfingers 7.12502
rthumb 8.28386 -22.2915
lclavicle 1.26228e-014 1.23246e-014
lhumerus -38.1793 24.6445 81.2041
lradius 29.7114
lwrist 7.77741
lhand -24.7826 15.1604
lfingers 7.12502
lthumb 1.72152 45.1332
rfemur -27.1196 -12.0078 25.142
rtibia 37.6891
rfoot 23.8255 -8.79247
rtoes 17.5591
lfemur -28.5447 4.08892 -17.6887
ltibia 41.0118
lfoot 20.142 -6.7561
ltoes 5.16318
218
root 0.604246 26.7614 -17.3686 6.09845 -8.99962 1.10989
lowerback 16.3079 1.26667 -1.14589
upperback 2.05667 1.51037 0.716198
thorax -6.994 0.768291 1.08155
lowerneck -13.1736 -3.72999 -11.8923
upperneck 12.0133 -4.10674 9.21437
head 6.24445 -1.83533 4.52511
rclavicle 4.11484e-014 1.43125e-014
rhumerus -43.5154 -18.1959 -76.2531
rradius 32.2184
rwrist 1.04119
rhand -19.2079 7.11103
rfingers 7.12502
rthumb 7.10448 -22.7497
lclavicle 4.11484e-014 1.43125e-014
lhumerus -38.561 23.4431 81.6619
lradius 30.281
lwrist 8.57182
lhand -25.0709 15.4506
lfingers 7.12502
lthumb 1.44313 45.4255
rfemur -27.122 -11.8306 25.2168
rtibia 37.3177
rfoot 23.3252 -8.55975
rtoes 17.3425
lfemur -28.4842 4.10121 -17.4048
ltibia 40.4966
lfoot 19.4114 -6.60248
ltoes 4.27425
219
root 0.597953 26.7265 -17.3817 6.49353 -8.91889 1.25571
lowerback 16.1221 1.17448 -1.18882
upperback 1.84014 1.37939 0.644211
thorax -7.11948 0.707405 1.05898
lowerneck -12.9243 -4.17482 -12.9588
upperneck 11.8282 -4.67243 10.1821
head 6.25653 -2.09031 4.96502
rclavicle 0 1.82882e-014
rhumerus -43.6502 -16.9864 -77.381
rradius 32.97
rwrist 1.78525
rhand -20.3978 7.27749
rfingers 7.12502
rthumb 5.95574 -22.6188
lclavicle 0 1.82882e-014
lhumerus -39.16 22.6296 81.9756
lradius 30.9257
lwrist 9.06178
lhand -25.3794 14.8207
lfingers 7.12502
lthumb 1.14517 44.7973
rfemur -27.6235 -11.8257 25.1182
rtibia 36.9908
rfoot 23.2414 -8.1685
rtoes 17.2515
lfemur -28.9156 3.74226 -17.376
ltibia 39.995
lfoot 18.8573 -6.59782
ltoes 3.45454
220
root 0.588896 26.6794 -17.3887 6.40156 -9.07462 1.32825
lowerback 16.8435 0.993821 -1.00833
upperback 1.40977 1.14946 0.422035
thorax -7.96724 0.592284 0.757376
lowerneck -13.3175 -3.50317 -11.6958
upperneck 13.0764 -3.88273 9.2518
head 6.57744 -1.71933 4.54094
rclavicle -1.39149e-015 -1.47101e-014
rhumerus -44.4738 -15.4146 -78.6046
rradius 33.5412
rwrist 2.70731
rhand -21.4459 8.46937
rfingers 7.12502
rthumb 4.94381 -21.453
lclavicle -1.39149e-015 -1.47101e-014
lhumerus -40.5101 21.732 81.7203
lradius 31.8238
lwrist 9.57075
lhand -25.3574 14.131
lfingers 7.12502
lthumb 1.16636 44.1075
rfemur -27.5389 -11.6066 24.9684
rtibia 36.6394
rfoot 23.2039 -7.64389
rtoes 16.828
lfemur -28.7476 3.50843 -17.233
ltibia 39.4991
lfoot 18.11 -6.4988
ltoes 2.68374
221
root 0.58042 26.6239 -17.3831 6.55009 -9.66833 1.237
lowerback 15.8357 1.14958 -1.44701
upperback 1.82956 1.31697 0.805623
thorax -6.98094 0.686064 1.39517
lowerneck -13.5862 -3.32808 -11.7043
upperneck 13.2094 -3.53655 8.75417
head 6.61933 -1.58758 4.41264
rclavicle 8.74653e-015 -7.95139e-015
rhumerus -44.0763 -13.3645 -79.309
rradius 34.1129
rwrist 2.96846
rhand -22.2626 9.2217
rfingers 7.12502
rthumb 4.15517 -20.7175
lclavicle 8.74653e-015 -7.95139e-015
lhumerus -40.4195 21.6153 82.7346
lradius 32.5407
lwrist 9.45703
lhand -25.0845 15.1904
lfingers 7.12502
lthumb 1.42997 45.1654
rfemur -27.6348 -10.946 24.9822
rtibia 36.3065
rfoot 22.8495 -7.06154
rtoes 16.2433
lfemur -28.7173 3.7109 -16.9688
ltibia 39.0182
lfoot 17.3701 -6.19069
ltoes 2.54419
222
root 0.578022 26.5461 -17.3912 6.19737 -9.7972 1.07075
lowerback 16.6569 1.01928 -0.823618
upperback 1.68207 1.22643 0.537672
thorax -7.57 0.622459 0.763338
lowerneck -13.4487 -3.41034 -11.6398
upperneck 13.318 -3.74325 9.11712
head 6.65785 -1.65883 4.50394
rclavicle 2.00773e-014 1.47101e-014
rhumerus -44.3026 -12.6536 -80.276
rradius 34.0485
rwrist 3.99846
rhand -23.0787 9.78745
rfingers 7.12502
rthumb 3.36709 -20.1657
lclavicle 2.00773e-014 1.47101e-014
lhumerus -40.9372 20.4749 82.6409
lradius 33.0067
lwrist 9.62759
lhand -25.0246 16.2795
lfingers 7.12502
lthumb 1.48784 46.2541
rfemur -27.1677 -10.6325 24.9509
rtibia 35.9343
rfoot 22.3355 -6.39926
rtoes 14.6344
lfemur -28.2213 3.35726 -16.5766
ltibia 38.5227
lfoot 16.8317 -5.73409
ltoes 2.10512
223
root 0.56902 26.4627 -17.4026 6.48611 -10.0502 1.18785
lowerback 16.2691 1.00559 -0.773044
upperback 1.77057 1.20637 0.365389
thorax -7.25522 0.607738 0.561371
lowerneck -13.473 -3.88312 -12.5664
upperneck 12.7349 -4.33905 10.1845
head 6.58746 -1.9029 4.9446
rclavicle -9.44227e-015 1.98785e-015
rhumerus -43.8434 -12.0467 -81.1277
rradius 34.1641
rwrist 4.84375
rhand -23.3189 9.76427
rfingers 7.12502
rthumb 3.13511 -20.1924
lclavicle -9.44227e-015 1.98785e-015
lhumerus -40.5539 19.6538 82.9261
lradius 33.1701
lwrist 9.6655
lhand -24.9077 16.2589
lfingers 7.12502
lthumb 1.60069 46.2326
rfemur -27.4906 -10.1439 24.7737
rtibia 35.5835
rfoot 22.0346 -5.75139
rtoes 13.2366
lfemur -28.4385 3.25001 -16.5259
ltibia 38.0073
lfoot 16.7481 -5.54504
ltoes 2.88175
224
root 0.562343 26.3702 -17.3991 6.39116 -10.3455 1.29879
lowerback 16.1275 1.00161 -0.954813
upperback 1.79001 1.17733 0.460344
thorax -7.1615 0.600069 0.77432
lowerneck -13.685 -3.22125 -11.4543
upperneck 13.0754 -3.44532 8.87854
head 6.58078 -1.51782 4.41991
rclavicle -6.26172e-015 -9.14409e-015
rhumerus -44.03 -10.9065 -81.5636
rradius 34.8405
rwrist 5.06408
rhand -22.5632 9.08263
rfingers 7.12502
rthumb 3.86496 -20.8621
lclavicle -6.26172e-015 -9.14409e-015
lhumerus -40.7817 19.1285 83.3304
lradius 33.6342
lwrist 9.81741
lhand -24.6975 16.1098
lfingers 7.12502
lthumb 1.80376 46.082
rfemur -27.2746 -9.70031 24.4779
rtibia 35.1935
rfoot 21.6312 -5.0428
rtoes 12.6088
lfemur -28.1435 3.1182 -16.4734
ltibia 37.4788
lfoot 16.8456 -5.56224
ltoes 4.32492
225
root 0.557639 26.262 -17.3931 6.07141 -10.5959 1.36238
lowerback 16.3497 0.892751 -1.18072
upperback 1.64765 1.00988 0.691755
thorax -7.44199 0.531148 1.18341
lowerneck -13.3625 -2.7495 -11.6425
upperneck 13.5783 -2.77092 8.55887
head 6.61095 -1.24019 4.42118
rclavicle -1.38155e-014 0
rhumerus -44.5297 -9.45247 -81.7963
rradius 35.246
rwrist 5.10305
rhand -22.008 9.40654
rfingers 7.12502
rthumb 4.40104 -20.5277
lclavicle -1.38155e-014 0
lhumerus -41.6053 18.9137 83.578
lradius 34.2351
lwrist 10.1429
lhand -24.693 15.8032
lfingers 7.12502
lthumb 1.80804 45.7753
rfemur -26.8124 -9.37496 24.1821
rtibia 34.8098
rfoot 21.0396 -4.38001
rtoes 11.7064
lfemur -27.5821 3.04603 -16.3959
ltibia 36.9306
lfoot 16.6207 -5.62911
ltoes 4.43516
